<?xml version="1.0" encoding="utf-8"?>

<!-- Generator: Adobe Illustrator 27.0.0, SVG Export Plug-In . SVG Version: 6.00 Build 0)  -->
<svg version="1.1" id="_图层_1" xmlns="http://www.w3.org/2000/svg" width="100%" height="100%" viewBox="0 0 100 100"
	preserveAspectRatio="xMidYMid meet">
	<g>
		<g>
			<polygon fill="#890188" points="50,6.7 48.3,9.6 53,17.5 54.7,14.7" />
		</g>
		<g>
			<polygon fill="#00AFC4" points="50,6.7 48.3,9.6 51.7,9.6" />
		</g>
		<g>
			<polygon fill="#456BC2" points="48.3,9.6 44.1,16.8 63.6,49.7 54.5,64.8 71,91.2 84.5,91.2 66.9,61 72.9,50.9" />
		</g>
		<g>
			<polygon fill="#D07285" points="99.8,91.2 84.5,91.2 66.9,61 74.4,48.2" />
		</g>
		<g>
			<polygon fill="#E9A9C6" points="54.7,14.7 53,17.5 72.9,50.9 74.4,48.2" />
		</g>
		<g>
			<polygon fill="#08F8FF" points="54.8,34.8 21.8,91.2 71,91.2 54.5,64.8 63.6,49.7" />
		</g>
		<g>
			<polygon fill="#A8CFF4" points="0.2,91.2 44.1,16.8 54.8,34.8 21.8,91.2 " />
		</g>
		<g>
			<path fill="currentColor" d="M100,91.3H0l0.1-0.2L50,6.5l0.1,0.2L100,91.3z M0.5,91h99.1L50,7L0.5,91z" />
		</g>
		<g>
			<g>
				<polygon points="48.7,10.5 48.2,9.7 48.4,9.5 48.9,10.4" />
			</g>
			<g>
				<path d="M71.3,48.4l-1-1.7l0.2-0.1l1,1.7L71.3,48.4z M69.2,44.9l-1-1.7l0.2-0.1l1,1.7L69.2,44.9z M67.2,41.5l-1-1.7l0.2-0.1
				l1,1.7L67.2,41.5z M65.1,38.1l-1-1.7l0.2-0.1l1,1.7L65.1,38.1z M63.1,34.6l-1-1.7l0.2-0.1l1,1.7L63.1,34.6z M61,31.2l-1-1.7
				l0.2-0.1l1,1.7L61,31.2z M59,27.7l-1-1.7l0.2-0.1l1,1.7L59,27.7z M56.9,24.3l-1-1.7l0.2-0.1l1,1.7L56.9,24.3z M54.9,20.9l-1-1.7
				l0.2-0.1l1,1.7L54.9,20.9z M52.8,17.4l-1-1.7l0.2-0.1l1,1.7L52.8,17.4z M50.8,14l-1-1.7l0.2-0.1l1,1.7L50.8,14z" />
			</g>
			<g>
				<polygon points="72.5,51.8 72.3,51.7 72.8,50.9 72.3,50.1 72.5,50 73.1,50.9 			" />
			</g>
			<g>
				<path d="M68.5,58.5l-0.2-0.1l1-1.7l0.2,0.1L68.5,58.5z M70.5,55.2L70.3,55l1-1.7l0.2,0.1L70.5,55.2z" />
			</g>
			<g>
				<polygon points="67.3,61.9 66.7,61 67.3,60 67.5,60.2 67,61 67.5,61.8 			" />
			</g>
			<g>
				<path d="M82.9,88.7L82,87l0.2-0.1l1,1.7L82.9,88.7z M81,85.3l-1-1.7l0.2-0.1l1,1.7L81,85.3z M79,82l-1-1.7l0.2-0.1l1,1.7L79,82z
				 M77.1,78.6l-1-1.7l0.2-0.1l1,1.7L77.1,78.6z M75.1,75.3l-1-1.7l0.2-0.1l1,1.7L75.1,75.3z M73.1,71.9l-1-1.7l0.2-0.1l1,1.7
				L73.1,71.9z M71.2,68.6l-1-1.7l0.2-0.1l1,1.7L71.2,68.6z M69.2,65.2l-1-1.7l0.2-0.1l1,1.7L69.2,65.2z" />
			</g>
			<g>
				<polygon points="84.4,91.2 83.9,90.4 84.2,90.2 84.7,91.1 			" />
			</g>
		</g>
		<g>
			<path d="M70.8,91.2l-1.1-1.7l0.2-0.1L71,91L70.8,91.2z M68.7,87.7L67.6,86l0.2-0.1l1.1,1.7L68.7,87.7z M66.5,84.3l-1.1-1.7
			l0.2-0.1l1.1,1.7L66.5,84.3z M64.4,80.9l-1.1-1.7l0.2-0.1l1.1,1.7L64.4,80.9z M62.3,77.4l-1.1-1.7l0.2-0.1l1.1,1.7L62.3,77.4z
			 M60.1,74L59,72.3l0.2-0.1l1.1,1.7L60.1,74z M58,70.6l-1.1-1.7l0.2-0.1l1.1,1.7L58,70.6z M55.8,67.2l-1.1-1.7l0.2-0.1L56,67
			L55.8,67.2z M55.3,63.7l-0.2-0.1l1-1.7l0.2,0.1L55.3,63.7z M57.4,60.2l-0.2-0.1l1-1.7l0.2,0.1L57.4,60.2z M59.5,56.8l-0.2-0.1
			l1-1.7l0.2,0.1L59.5,56.8z M61.6,53.3l-0.2-0.1l1-1.7l0.2,0.1L61.6,53.3z M63.7,49.9l-0.2-0.1l0-0.1l-0.9-1.6l0.2-0.1l1,1.7
			L63.7,49.9z M61.5,46.4l-1-1.7l0.2-0.1l1,1.7L61.5,46.4z M59.4,42.9l-1-1.7l0.2-0.1l1,1.7L59.4,42.9z M57.4,39.4l-1-1.7l0.2-0.1
			l1,1.7L57.4,39.4z M55.3,36l-1-1.7l0.2-0.1l1,1.7L55.3,36z M53.2,32.5l-1-1.7l0.2-0.1l1,1.7L53.2,32.5z M51.2,29l-1-1.7l0.2-0.1
			l1,1.7L51.2,29z M49.1,25.5l-1-1.7l0.2-0.1l1,1.7L49.1,25.5z M47.1,22.1l-1-1.7l0.2-0.1l1,1.7L47.1,22.1z M45,18.6l-1-1.7l0.2-0.1
			l1,1.7L45,18.6z" />
		</g>
		<g>
			<path d="M21.9,91.2l-0.2-0.1l0.3-0.5l0.2,0.1L21.9,91.2z M23.3,89L23,88.8l1-1.7l0.2,0.1L23.3,89z M25.3,85.5l-0.2-0.1l1-1.7
			l0.2,0.1L25.3,85.5z M27.3,82l-0.2-0.1l1-1.7l0.2,0.1L27.3,82z M29.4,78.5l-0.2-0.1l1-1.7l0.2,0.1L29.4,78.5z M31.4,75l-0.2-0.1
			l1-1.7l0.2,0.1L31.4,75z M33.5,71.5l-0.2-0.1l1-1.7l0.2,0.1L33.5,71.5z M35.5,68l-0.2-0.1l1-1.7l0.2,0.1L35.5,68z M37.6,64.6
			l-0.2-0.1l1-1.7l0.2,0.1L37.6,64.6z M39.6,61.1l-0.2-0.1l1-1.7l0.2,0.1L39.6,61.1z M41.6,57.6l-0.2-0.1l1-1.7l0.2,0.1L41.6,57.6z
			 M43.7,54.1L43.4,54l1-1.7l0.2,0.1L43.7,54.1z M45.7,50.6l-0.2-0.1l1-1.7l0.2,0.1L45.7,50.6z M47.8,47.1L47.5,47l1-1.7l0.2,0.1
			L47.8,47.1z M49.8,43.6l-0.2-0.1l1-1.7l0.2,0.1L49.8,43.6z M51.9,40.1L51.6,40l1-1.7l0.2,0.1L51.9,40.1z M53.9,36.7l-0.2-0.1
			l1-1.7l0.2,0.1L53.9,36.7z" />
		</g>
		<g>
			<polygon points="89.4,91.2 88.4,89.6 88.7,89.5 89.6,91.1" />
		</g>
		<g>
			<polygon points="79.5,91.2 78.6,89.6 78.8,89.5 79.8,91.1" />
		</g>
		<g>
			<polygon points="69.7,91.2 68.7,89.6 69,89.5 69.9,91.1" />
		</g>
		<g>
			<polygon points="59.8,91.2 58.9,89.6 59.1,89.5 60.1,91.1" />
		</g>
		<g>
			<polygon points="50,91.2 49,89.6 49.3,89.5 50.2,91.1" />
		</g>
		<g>
			<polygon points="40.1,91.2 39.2,89.6 39.4,89.5 40.4,91.1" />
		</g>
		<g>
			<polygon points="30.3,91.2 29.3,89.6 29.6,89.5 30.5,91.1" />
		</g>
		<g>
			<polygon points="20.4,91.2 19.5,89.6 19.7,89.5 20.7,91.1" />
		</g>
		<g>
			<polygon points="10.6,91.2 9.6,89.6 9.9,89.5 10.8,91.1" />
		</g>
		<g>
			<rect x="45.3" y="14.6" width="1.9" height="0.3" />
		</g>
		<g>
			<rect x="40.3" y="23" width="1.9" height="0.3" />
		</g>
		<g>
			<rect x="35.3" y="31.5" width="1.9" height="0.3" />
		</g>
		<g>
			<rect x="30.4" y="39.9" width="1.9" height="0.3" />
		</g>
		<g>
			<rect x="25.4" y="48.4" width="1.9" height="0.3" />
		</g>
		<g>
			<rect x="20.4" y="56.8" width="1.9" height="0.3" />
		</g>
		<g>
			<rect x="15.4" y="65.3" width="1.9" height="0.3" />
		</g>
		<g>
			<rect x="10.4" y="73.7" width="1.9" height="0.3" />
		</g>
		<g>
			<rect x="5.4" y="82.2" width="1.9" height="0.3" />
		</g>
		<g>
			<polygon points="53.7,16.6 53.5,16.5 54.6,14.6 54.8,14.7" />
		</g>
		<g>
			<polygon points="58.6,24.8 58.4,24.7 59.5,22.9 59.7,23" />
		</g>
		<g>
			<polygon points="63.5,33 63.2,32.9 64.3,31.1 64.6,31.2" />
		</g>
		<g>
			<polygon points="68.6,41.8 68.4,41.7 69.5,39.8 69.7,39.9" />
		</g>
		<g>
			<polygon points="73.5,50.1 73.2,49.9 74.3,48.1 74.6,48.2" />
		</g>
		<g>
			<polygon points="78.4,58.5 78.2,58.3 79.3,56.5 79.5,56.6" />
		</g>
		<g>
			<polygon points="83.3,66.9 83.1,66.8 84.2,64.9 84.4,65.1" />
		</g>
		<g>
			<polygon points="88.3,75.2 88.1,75.1 89.1,73.3 89.4,73.4" />
		</g>
		<g>
			<polygon points="93.2,83.6 93,83.4 94.1,81.6 94.3,81.7" />
		</g>
		<g>
			<path fill="currentColor" d="M48.1,1.6v1h-0.3V0h0.8c0.3,0,0.5,0.1,0.7,0.2c0.2,0.1,0.2,0.3,0.2,0.6c0,0.3-0.1,0.5-0.3,0.6c-0.2,0.2-0.4,0.2-0.7,0.2
			H48.1z M48.1,0.3v1h0.3c0.2,0,0.4,0,0.5-0.1S49,1,49,0.8c0-0.3-0.2-0.5-0.6-0.5H48.1z" />
			<path fill="currentColor" d="M49.9,2.6V0h0.8c0.4,0,0.7,0.1,1,0.3C51.9,0.6,52,0.9,52,1.3c0,0.4-0.1,0.7-0.4,1c-0.3,0.2-0.6,0.4-1,0.4H49.9z M50.2,0.3
			v2h0.4c0.3,0,0.6-0.1,0.8-0.3c0.2-0.2,0.3-0.4,0.3-0.8c0-0.3-0.1-0.6-0.3-0.7c-0.2-0.2-0.4-0.2-0.8-0.2H50.2z" />
		</g>
		<g>
			<path fill="currentColor" d="M63.6,8.7h-0.8V11h-0.3V8.7h-0.8V8.4h1.9V8.7z" />
			<path fill="currentColor" d="M64.7,11V8.8c-0.1,0.1-0.1,0.1-0.3,0.2c-0.1,0.1-0.2,0.1-0.3,0.1V8.8c0.1,0,0.3-0.1,0.4-0.2c0.2-0.1,0.3-0.2,0.4-0.2H65
			V11H64.7z" />
		</g>
		<g>
			<path fill="currentColor" d="M36.6,46.3v-2.6h0.8c0.4,0,0.7,0.1,1,0.3c0.3,0.2,0.4,0.5,0.4,0.9c0,0.4-0.1,0.7-0.4,1c-0.3,0.2-0.6,0.4-1,0.4H36.6z
			 M37,44v2h0.4c0.3,0,0.6-0.1,0.8-0.3c0.2-0.2,0.3-0.4,0.3-0.8c0-0.3-0.1-0.6-0.3-0.7C37.9,44,37.7,44,37.4,44H37z" />
			<path fill="currentColor" d="M39.9,46.3V44c-0.1,0.1-0.1,0.1-0.3,0.2c-0.1,0.1-0.2,0.1-0.3,0.1V44c0.1,0,0.3-0.1,0.4-0.2c0.2-0.1,0.3-0.2,0.4-0.2h0.1
			v2.6H39.9z" />
		</g>
		<g>
			<path fill="currentColor" d="M8.7,44.9c0-0.2,0.1-0.4,0.2-0.5c0.1-0.1,0.3-0.2,0.5-0.2c0.2,0,0.3,0.1,0.4,0.2c0.1,0.1,0.2,0.3,0.2,0.5
			c0,0.2-0.1,0.4-0.2,0.5c-0.1,0.1-0.3,0.2-0.5,0.2c-0.2,0-0.3-0.1-0.4-0.2C8.8,45.2,8.7,45.1,8.7,44.9z M9,44.9
			c0,0.1,0,0.3,0.1,0.3c0.1,0.1,0.2,0.1,0.3,0.1c0.1,0,0.2,0,0.3-0.1c0.1-0.1,0.1-0.2,0.1-0.3c0-0.1,0-0.3-0.1-0.3
			c-0.1-0.1-0.1-0.1-0.3-0.1c-0.1,0-0.2,0-0.3,0.1C9,44.6,9,44.7,9,44.9z M11.1,44.2l-1.7,2.6H9.1l1.7-2.6H11.1z M10.3,46.2
			c0-0.2,0.1-0.4,0.2-0.5c0.1-0.1,0.3-0.2,0.5-0.2c0.2,0,0.3,0.1,0.4,0.2s0.2,0.3,0.2,0.5c0,0.2-0.1,0.4-0.2,0.5
			c-0.1,0.1-0.3,0.2-0.5,0.2c-0.2,0-0.3-0.1-0.4-0.2C10.4,46.6,10.3,46.4,10.3,46.2z M10.6,46.2c0,0.1,0,0.3,0.1,0.3
			c0.1,0.1,0.2,0.1,0.3,0.1c0.1,0,0.2,0,0.3-0.1c0.1-0.1,0.1-0.2,0.1-0.3c0-0.1,0-0.3-0.1-0.3c-0.1-0.1-0.1-0.1-0.3-0.1
			c-0.1,0-0.2,0-0.3,0.1C10.6,45.9,10.6,46,10.6,46.2z" />
			<path fill="currentColor" d="M13.8,46.7c-0.2,0.1-0.4,0.2-0.7,0.2c-0.4,0-0.7-0.1-0.9-0.4s-0.3-0.5-0.3-0.9c0-0.4,0.1-0.8,0.4-1c0.3-0.3,0.6-0.4,1-0.4
			c0.3,0,0.5,0,0.6,0.1v0.3c-0.2-0.1-0.4-0.2-0.6-0.2c-0.3,0-0.5,0.1-0.7,0.3c-0.2,0.2-0.3,0.5-0.3,0.8c0,0.3,0.1,0.6,0.3,0.7
			c0.2,0.2,0.4,0.3,0.7,0.3c0.3,0,0.5-0.1,0.7-0.2V46.7z" />
			<path fill="currentColor" d="M16.4,46.8H16v-1.2h-1.3v1.2h-0.3v-2.6h0.3v1.1H16v-1.1h0.3V46.8z" />
			<path fill="currentColor" d="M17.7,45.3v1h0.2v0.2h-0.2v0.4h-0.2v-0.4h-0.7v-0.2c0.1-0.1,0.3-0.3,0.4-0.5c0.1-0.2,0.2-0.4,0.3-0.5H17.7z M17,46.3h0.5
			v-0.7c-0.1,0.1-0.1,0.2-0.2,0.4C17.2,46,17.1,46.2,17,46.3z" />
		</g>
		<g>
			<path fill="currentColor" d="M81.3,44c0-0.2,0.1-0.4,0.2-0.5c0.1-0.1,0.3-0.2,0.5-0.2c0.2,0,0.3,0.1,0.4,0.2c0.1,0.1,0.2,0.3,0.2,0.5
			c0,0.2-0.1,0.4-0.2,0.5c-0.1,0.1-0.3,0.2-0.5,0.2c-0.2,0-0.3-0.1-0.4-0.2C81.3,44.4,81.3,44.2,81.3,44z M81.5,44
			c0,0.1,0,0.3,0.1,0.3c0.1,0.1,0.2,0.1,0.3,0.1c0.1,0,0.2,0,0.3-0.1c0.1-0.1,0.1-0.2,0.1-0.3c0-0.1,0-0.3-0.1-0.3
			c-0.1-0.1-0.1-0.1-0.3-0.1c-0.1,0-0.2,0-0.3,0.1C81.6,43.7,81.5,43.9,81.5,44z M83.7,43.4L82,46h-0.3l1.7-2.6H83.7z M82.9,45.4
			c0-0.2,0.1-0.4,0.2-0.5c0.1-0.1,0.3-0.2,0.5-0.2c0.2,0,0.3,0.1,0.4,0.2c0.1,0.1,0.2,0.3,0.2,0.5c0,0.2-0.1,0.4-0.2,0.5
			c-0.1,0.1-0.3,0.2-0.5,0.2c-0.2,0-0.3-0.1-0.4-0.2C82.9,45.7,82.9,45.5,82.9,45.4z M83.1,45.3c0,0.1,0,0.3,0.1,0.3
			c0.1,0.1,0.2,0.1,0.3,0.1c0.1,0,0.2,0,0.3-0.1c0.1-0.1,0.1-0.2,0.1-0.3c0-0.1,0-0.3-0.1-0.3c-0.1-0.1-0.1-0.1-0.3-0.1
			c-0.1,0-0.2,0-0.3,0.1C83.1,45.1,83.1,45.2,83.1,45.3z" />
			<path fill="currentColor" d="M86.4,45.9C86.2,46,85.9,46,85.7,46c-0.4,0-0.7-0.1-0.9-0.4s-0.3-0.5-0.3-0.9c0-0.4,0.1-0.8,0.4-1c0.3-0.3,0.6-0.4,1-0.4
			c0.3,0,0.5,0,0.6,0.1v0.3c-0.2-0.1-0.4-0.2-0.6-0.2c-0.3,0-0.5,0.1-0.7,0.3c-0.2,0.2-0.3,0.5-0.3,0.8c0,0.3,0.1,0.6,0.3,0.7
			c0.2,0.2,0.4,0.3,0.7,0.3c0.3,0,0.5-0.1,0.7-0.2V45.9z" />
			<path fill="currentColor" d="M87.4,44.8c0-0.1,0-0.1-0.1-0.2c-0.1,0-0.1-0.1-0.2-0.1c-0.1,0-0.1,0-0.2,0c-0.1,0-0.1,0.1-0.2,0.1v-0.2
			c0.1-0.1,0.1-0.1,0.2-0.1c0.1,0,0.1,0,0.2,0c0.1,0,0.3,0,0.3,0.1s0.1,0.2,0.1,0.3c0,0.1,0,0.2-0.1,0.3s-0.1,0.2-0.3,0.3
			c-0.1,0.1-0.2,0.2-0.3,0.2c0,0-0.1,0.1-0.1,0.1c0,0,0,0.1,0,0.1h0.8V46h-1v-0.1c0-0.1,0-0.2,0-0.2s0.1-0.1,0.1-0.2
			c0.1-0.1,0.1-0.1,0.3-0.2c0.1-0.1,0.2-0.2,0.2-0.2C87.4,45,87.4,44.9,87.4,44.8z" />
			<path fill="currentColor" d="M90.1,46h-0.3v-1.2h-1.3V46h-0.3v-2.6h0.3v1.1h1.3v-1.1h0.3V46z" />
			<path fill="currentColor" d="M91.4,44.4v1h0.2v0.2h-0.2V46h-0.2v-0.4h-0.7v-0.2c0.1-0.1,0.3-0.3,0.4-0.5c0.1-0.2,0.2-0.4,0.3-0.5H91.4z M90.7,45.4h0.5
			v-0.7c-0.1,0.1-0.1,0.2-0.2,0.4C90.9,45.2,90.8,45.3,90.7,45.4z" />
		</g>
		<g>
			<path fill="currentColor" d="M50.8,98c0-0.2,0.1-0.4,0.2-0.5c0.1-0.1,0.3-0.2,0.5-0.2c0.2,0,0.3,0.1,0.4,0.2c0.1,0.1,0.2,0.3,0.2,0.5
			c0,0.2-0.1,0.4-0.2,0.5c-0.1,0.1-0.3,0.2-0.5,0.2c-0.2,0-0.3-0.1-0.4-0.2C50.9,98.3,50.8,98.2,50.8,98z M51.1,98
			c0,0.1,0,0.3,0.1,0.3c0.1,0.1,0.2,0.1,0.3,0.1c0.1,0,0.2,0,0.3-0.1c0.1-0.1,0.1-0.2,0.1-0.3c0-0.1,0-0.3-0.1-0.3
			c-0.1-0.1-0.1-0.1-0.3-0.1c-0.1,0-0.2,0-0.3,0.1C51.1,97.7,51.1,97.8,51.1,98z M53.2,97.3l-1.7,2.6h-0.3l1.7-2.6H53.2z M52.4,99.3
			c0-0.2,0.1-0.4,0.2-0.5c0.1-0.1,0.3-0.2,0.5-0.2c0.2,0,0.3,0.1,0.4,0.2c0.1,0.1,0.2,0.3,0.2,0.5c0,0.2-0.1,0.4-0.2,0.5
			c-0.1,0.1-0.3,0.2-0.5,0.2c-0.2,0-0.3-0.1-0.4-0.2C52.5,99.7,52.4,99.5,52.4,99.3z M52.7,99.3c0,0.1,0,0.3,0.1,0.3
			c0.1,0.1,0.2,0.1,0.3,0.1c0.1,0,0.2,0,0.3-0.1c0.1-0.1,0.1-0.2,0.1-0.3c0-0.1,0-0.3-0.1-0.3c-0.1-0.1-0.1-0.1-0.3-0.1
			c-0.1,0-0.2,0-0.3,0.1C52.7,99,52.7,99.1,52.7,99.3z" />
			<path fill="currentColor" d="M55.9,99.8c-0.2,0.1-0.4,0.2-0.7,0.2c-0.4,0-0.7-0.1-0.9-0.4c-0.2-0.2-0.3-0.5-0.3-0.9c0-0.4,0.1-0.8,0.4-1
			c0.3-0.3,0.6-0.4,1-0.4c0.3,0,0.5,0,0.6,0.1v0.3c-0.2-0.1-0.4-0.2-0.6-0.2c-0.3,0-0.5,0.1-0.7,0.3c-0.2,0.2-0.3,0.5-0.3,0.8
			c0,0.3,0.1,0.6,0.3,0.7c0.2,0.2,0.4,0.3,0.7,0.3c0.3,0,0.5-0.1,0.7-0.2V99.8z" />
			<path fill="currentColor" d="M57,98.8c0-0.1,0-0.1-0.1-0.2c-0.1,0-0.1-0.1-0.2-0.1c-0.1,0-0.1,0-0.2,0c-0.1,0-0.1,0.1-0.2,0.1v-0.2
			c0.1-0.1,0.1-0.1,0.2-0.1c0.1,0,0.1,0,0.2,0c0.1,0,0.3,0,0.3,0.1c0.1,0.1,0.1,0.2,0.1,0.3c0,0.1,0,0.2-0.1,0.3
			c-0.1,0.1-0.1,0.2-0.3,0.3c-0.1,0.1-0.2,0.2-0.3,0.2c0,0-0.1,0.1-0.1,0.1c0,0,0,0.1,0,0.1h0.8v0.2h-1v-0.1c0-0.1,0-0.2,0-0.2
			c0-0.1,0.1-0.1,0.1-0.2c0.1-0.1,0.1-0.1,0.3-0.2c0.1-0.1,0.2-0.2,0.2-0.2C57,98.9,57,98.9,57,98.8z" />
			<path fill="currentColor" d="M59.7,99.9h-0.3v-1.2H58v1.2h-0.3v-2.6H58v1.1h1.3v-1.1h0.3V99.9z" />
			<path fill="currentColor" d="M60.9,98.8c0-0.1,0-0.1-0.1-0.2c-0.1,0-0.1-0.1-0.2-0.1c-0.1,0-0.1,0-0.2,0c-0.1,0-0.1,0.1-0.2,0.1v-0.2
			c0.1-0.1,0.1-0.1,0.2-0.1c0.1,0,0.1,0,0.2,0c0.1,0,0.3,0,0.3,0.1c0.1,0.1,0.1,0.2,0.1,0.3c0,0.1,0,0.2-0.1,0.3
			c-0.1,0.1-0.1,0.2-0.3,0.3c-0.1,0.1-0.2,0.2-0.3,0.2c0,0-0.1,0.1-0.1,0.1c0,0,0,0.1,0,0.1h0.8v0.2h-1v-0.1c0-0.1,0-0.2,0-0.2
			c0-0.1,0.1-0.1,0.1-0.2c0.1-0.1,0.1-0.1,0.3-0.2c0.1-0.1,0.2-0.2,0.2-0.2C60.9,98.9,60.9,98.9,60.9,98.8z" />
		</g>
		<g>
			<path fill="currentColor" d="M49.7,55.4v-2.6h0.8c0.4,0,0.7,0.1,1,0.3s0.4,0.5,0.4,0.9c0,0.4-0.1,0.7-0.4,1c-0.3,0.2-0.6,0.4-1,0.4H49.7z M50,53.1v2
			h0.4c0.3,0,0.6-0.1,0.8-0.3c0.2-0.2,0.3-0.4,0.3-0.8c0-0.3-0.1-0.6-0.3-0.7c-0.2-0.2-0.4-0.2-0.8-0.2H50z" />
			<path fill="currentColor" d="M53.5,53.5c0-0.1,0-0.2-0.1-0.3c-0.1-0.1-0.2-0.1-0.4-0.1c-0.1,0-0.2,0-0.3,0.1c-0.1,0.1-0.2,0.1-0.3,0.2v-0.3
			c0.1-0.1,0.2-0.2,0.3-0.2c0.1,0,0.2-0.1,0.4-0.1c0.2,0,0.4,0.1,0.6,0.2c0.1,0.1,0.2,0.3,0.2,0.5c0,0.2,0,0.4-0.1,0.5
			c-0.1,0.1-0.2,0.3-0.5,0.4c-0.2,0.1-0.4,0.3-0.4,0.3c-0.1,0.1-0.1,0.1-0.2,0.2s0,0.1,0,0.2h1.3v0.3h-1.7v-0.1c0-0.1,0-0.3,0.1-0.4
			c0-0.1,0.1-0.2,0.2-0.3c0.1-0.1,0.2-0.2,0.4-0.4c0.2-0.1,0.3-0.3,0.4-0.4C53.4,53.8,53.5,53.7,53.5,53.5z" />
		</g>
		<g>
			<path fill="currentColor"
				d="M60.3,70.1v-2.6h0.8c0.4,0,0.7,0.1,1,0.3c0.3,0.2,0.4,0.5,0.4,0.9c0,0.4-0.1,0.7-0.4,1c-0.3,0.2-0.6,0.4-1,0.4H60.3z
			 M60.6,67.8v2H61c0.3,0,0.6-0.1,0.8-0.3c0.2-0.2,0.3-0.4,0.3-0.8c0-0.3-0.1-0.6-0.3-0.7c-0.2-0.2-0.4-0.2-0.8-0.2H60.6z" />
			<path fill="currentColor" d="M64.8,69.2h-0.7v0.7h-0.3v-0.7h-0.7v-0.3h0.7v-0.7h0.3v0.7h0.7V69.2z" />
			<path fill="currentColor" d="M67.2,67.8h-0.8v2.3h-0.3v-2.3h-0.8v-0.3h1.9V67.8z" />
		</g>
		<g>
			<path fill="currentColor" d="M83.5,73.9h-0.8v2.3h-0.3v-2.3h-0.8v-0.3h1.9V73.9z" />
			<path fill="currentColor" d="M83.8,75.7c0.2,0.1,0.4,0.2,0.6,0.2c0.2,0,0.3,0,0.4-0.1c0.1-0.1,0.2-0.2,0.2-0.4c0-0.3-0.2-0.5-0.7-0.5h-0.2v-0.3h0.2
			c0.4,0,0.6-0.2,0.6-0.5c0-0.3-0.2-0.4-0.5-0.4c-0.2,0-0.4,0.1-0.5,0.2v-0.3c0.2-0.1,0.4-0.1,0.6-0.1c0.2,0,0.4,0.1,0.5,0.2
			c0.1,0.1,0.2,0.3,0.2,0.4c0,0.3-0.2,0.6-0.5,0.7v0c0.2,0,0.3,0.1,0.5,0.2c0.1,0.1,0.2,0.3,0.2,0.4c0,0.2-0.1,0.4-0.3,0.6
			c-0.2,0.1-0.4,0.2-0.7,0.2c-0.3,0-0.5,0-0.6-0.1V75.7z" />
		</g>
		<g>
			<path fill="currentColor" d="M77.2,24.9h-0.8v2.3h-0.3v-2.3h-0.8v-0.3h1.9V24.9z" />
			<path fill="currentColor" d="M78.7,25.2c0-0.1,0-0.2-0.1-0.3c-0.1-0.1-0.2-0.1-0.4-0.1c-0.1,0-0.2,0-0.3,0.1c-0.1,0.1-0.2,0.1-0.3,0.2v-0.3
			c0.1-0.1,0.2-0.2,0.3-0.2c0.1,0,0.2-0.1,0.4-0.1c0.2,0,0.4,0.1,0.6,0.2C79,24.8,79,25,79,25.2c0,0.2,0,0.4-0.1,0.5
			c-0.1,0.1-0.2,0.3-0.5,0.4c-0.2,0.1-0.4,0.3-0.4,0.3c-0.1,0.1-0.1,0.1-0.2,0.2s0,0.1,0,0.2h1.3v0.3h-1.7V27c0-0.1,0-0.3,0.1-0.4
			c0-0.1,0.1-0.2,0.2-0.3c0.1-0.1,0.2-0.2,0.4-0.4c0.2-0.1,0.3-0.3,0.4-0.4C78.7,25.5,78.7,25.4,78.7,25.2z" />
		</g>
		<g>
			<path fill="currentColor" d="M34.8,23.1c0-0.1,0-0.3,0.1-0.4c0.1-0.1,0.2-0.2,0.4-0.3c-0.1-0.1-0.2-0.1-0.3-0.2c-0.1-0.1-0.1-0.2-0.1-0.3
			c0-0.1,0-0.2,0.1-0.3c0.1-0.1,0.2-0.2,0.3-0.2c0.1-0.1,0.2-0.1,0.4-0.1c0.1,0,0.3,0,0.4,0.1c0.1,0.1,0.2,0.1,0.3,0.2
			c0.1,0.1,0.1,0.2,0.1,0.3c0,0.1,0,0.2-0.1,0.3c-0.1,0.1-0.2,0.2-0.3,0.2c0.1,0.1,0.3,0.1,0.4,0.3c0.1,0.1,0.1,0.3,0.1,0.4
			c0,0.1,0,0.3-0.1,0.4c-0.1,0.1-0.2,0.2-0.3,0.3c-0.1,0.1-0.3,0.1-0.4,0.1c-0.2,0-0.3,0-0.4-0.1c-0.1-0.1-0.2-0.2-0.3-0.3
			C34.9,23.4,34.8,23.3,34.8,23.1z M35.1,23.1c0,0.2,0,0.3,0.1,0.4c0.1,0.1,0.2,0.1,0.4,0.1c0.2,0,0.3,0,0.4-0.1
			c0.1-0.1,0.1-0.2,0.1-0.4c0-0.1-0.1-0.3-0.2-0.4c-0.1-0.1-0.2-0.1-0.4-0.1c-0.2,0-0.3,0-0.4,0.1S35.1,23,35.1,23.1z M35.2,21.9
			c0,0.1,0,0.2,0.1,0.3c0.1,0.1,0.2,0.1,0.3,0.1c0.1,0,0.2,0,0.3-0.1s0.1-0.2,0.1-0.3c0-0.1,0-0.2-0.1-0.3c-0.1-0.1-0.2-0.1-0.3-0.1
			c-0.1,0-0.2,0-0.3,0.1C35.3,21.7,35.2,21.8,35.2,21.9z" />
			<path fill="currentColor" d="M36.9,22.6c0-0.5,0.1-0.8,0.2-1c0.2-0.2,0.4-0.4,0.7-0.4c0.6,0,0.8,0.4,0.8,1.3c0,0.4-0.1,0.8-0.2,1
			c-0.2,0.2-0.4,0.3-0.7,0.3c-0.3,0-0.5-0.1-0.6-0.3C36.9,23.3,36.9,23,36.9,22.6z M37.2,22.6c0,0.7,0.2,1,0.5,1
			c0.4,0,0.5-0.3,0.5-1c0-0.7-0.2-1.1-0.5-1.1C37.4,21.5,37.2,21.9,37.2,22.6z" />
		</g>
		<g>
			<path fill="currentColor"
				d="M62.8,22c0-0.1,0-0.2-0.1-0.3c-0.1-0.1-0.2-0.1-0.4-0.1c-0.1,0-0.2,0-0.3,0.1c-0.1,0.1-0.2,0.1-0.3,0.2v-0.3
			c0.1-0.1,0.2-0.2,0.3-0.2c0.1,0,0.2-0.1,0.4-0.1c0.2,0,0.4,0.1,0.6,0.2c0.1,0.1,0.2,0.3,0.2,0.5c0,0.2,0,0.4-0.1,0.5
			c-0.1,0.1-0.2,0.3-0.5,0.4c-0.2,0.1-0.4,0.3-0.4,0.3c-0.1,0.1-0.1,0.1-0.2,0.2c0,0.1,0,0.1,0,0.2h1.3v0.3h-1.7v-0.1
			c0-0.1,0-0.3,0.1-0.4c0-0.1,0.1-0.2,0.2-0.3c0.1-0.1,0.2-0.2,0.4-0.4c0.2-0.1,0.3-0.3,0.4-0.4C62.7,22.2,62.8,22.1,62.8,22z" />
			<path fill="currentColor" d="M63.5,22.6c0-0.5,0.1-0.8,0.2-1c0.2-0.2,0.4-0.4,0.7-0.4c0.6,0,0.8,0.4,0.8,1.3c0,0.4-0.1,0.8-0.2,1
			c-0.2,0.2-0.4,0.3-0.7,0.3c-0.3,0-0.5-0.1-0.6-0.3C63.6,23.4,63.5,23.1,63.5,22.6z M63.9,22.6c0,0.7,0.2,1,0.5,1
			c0.4,0,0.5-0.3,0.5-1c0-0.7-0.2-1.1-0.5-1.1C64.1,21.5,63.9,21.9,63.9,22.6z" />
		</g>
		<g>
			<path fill="currentColor" d="M73.1,38v1.7h0.4v0.3h-0.4v0.6h-0.3v-0.6h-1.2v-0.3c0.2-0.2,0.4-0.5,0.7-0.8c0.2-0.3,0.4-0.6,0.5-0.9H73.1z M71.9,39.7
			h0.9v-1.2c-0.1,0.2-0.2,0.4-0.4,0.6C72.3,39.2,72.1,39.5,71.9,39.7z" />
			<path fill="currentColor" d="M73.7,39.3c0-0.5,0.1-0.8,0.2-1c0.2-0.2,0.4-0.4,0.7-0.4c0.6,0,0.8,0.4,0.8,1.3c0,0.4-0.1,0.8-0.2,1
			c-0.2,0.2-0.4,0.3-0.7,0.3c-0.3,0-0.5-0.1-0.6-0.3C73.8,40,73.7,39.7,73.7,39.3z M74.1,39.3c0,0.7,0.2,1,0.5,1
			c0.4,0,0.5-0.3,0.5-1c0-0.7-0.2-1.1-0.5-1.1C74.3,38.2,74.1,38.6,74.1,39.3z" />
		</g>
		<g>
			<path fill="currentColor" d="M83.3,55.7c-0.1-0.1-0.3-0.1-0.4-0.1c-0.2,0-0.4,0.1-0.6,0.3c-0.1,0.2-0.2,0.5-0.2,0.8h0c0.1-0.2,0.3-0.4,0.6-0.4
			c0.2,0,0.4,0.1,0.5,0.2c0.1,0.1,0.2,0.3,0.2,0.6c0,0.3-0.1,0.5-0.2,0.6c-0.2,0.2-0.4,0.2-0.6,0.2c-0.3,0-0.5-0.1-0.6-0.3
			s-0.2-0.5-0.2-0.9c0-0.5,0.1-0.8,0.3-1.1c0.2-0.3,0.5-0.4,0.8-0.4c0.2,0,0.3,0,0.4,0.1V55.7z M82.1,57.1c0,0.2,0,0.3,0.1,0.4
			c0.1,0.1,0.2,0.2,0.4,0.2c0.1,0,0.3-0.1,0.4-0.2c0.1-0.1,0.1-0.2,0.1-0.4c0-0.2,0-0.3-0.1-0.4c-0.1-0.1-0.2-0.1-0.4-0.1
			c-0.2,0-0.3,0.1-0.4,0.2C82.2,56.9,82.1,57,82.1,57.1z" />
			<path fill="currentColor" d="M83.8,56.7c0-0.5,0.1-0.8,0.2-1c0.2-0.2,0.4-0.4,0.7-0.4c0.6,0,0.8,0.4,0.8,1.3c0,0.4-0.1,0.8-0.2,1S84.9,58,84.6,58
			c-0.3,0-0.5-0.1-0.6-0.3C83.8,57.4,83.8,57.1,83.8,56.7z M84.1,56.7c0,0.7,0.2,1,0.5,1c0.4,0,0.5-0.3,0.5-1c0-0.7-0.2-1.1-0.5-1.1
			C84.3,55.6,84.1,56,84.1,56.7z" />
		</g>
		<g>
			<path fill="currentColor" d="M91.8,74c0-0.1,0-0.3,0.1-0.4c0.1-0.1,0.2-0.2,0.4-0.3C92.1,73.2,92,73.1,92,73c-0.1-0.1-0.1-0.2-0.1-0.3
			c0-0.1,0-0.2,0.1-0.3c0.1-0.1,0.2-0.2,0.3-0.2c0.1-0.1,0.2-0.1,0.4-0.1c0.1,0,0.3,0,0.4,0.1c0.1,0.1,0.2,0.1,0.3,0.2
			c0.1,0.1,0.1,0.2,0.1,0.3c0,0.1,0,0.2-0.1,0.3c-0.1,0.1-0.2,0.2-0.3,0.2c0.1,0.1,0.3,0.1,0.4,0.3c0.1,0.1,0.1,0.3,0.1,0.4
			c0,0.1,0,0.3-0.1,0.4c-0.1,0.1-0.2,0.2-0.3,0.3c-0.1,0.1-0.3,0.1-0.4,0.1c-0.2,0-0.3,0-0.4-0.1c-0.1-0.1-0.2-0.2-0.3-0.3
			C91.8,74.2,91.8,74.1,91.8,74z M92.1,74c0,0.2,0,0.3,0.1,0.4c0.1,0.1,0.2,0.1,0.4,0.1c0.2,0,0.3,0,0.4-0.1
			c0.1-0.1,0.1-0.2,0.1-0.4c0-0.1-0.1-0.3-0.2-0.4c-0.1-0.1-0.2-0.1-0.4-0.1c-0.2,0-0.3,0-0.4,0.1C92.1,73.7,92.1,73.8,92.1,74z
			 M92.2,72.7c0,0.1,0,0.2,0.1,0.3c0.1,0.1,0.2,0.1,0.3,0.1c0.1,0,0.2,0,0.3-0.1c0.1-0.1,0.1-0.2,0.1-0.3c0-0.1,0-0.2-0.1-0.3
			c-0.1-0.1-0.2-0.1-0.3-0.1c-0.1,0-0.2,0-0.3,0.1C92.2,72.5,92.2,72.6,92.2,72.7z" />
			<path fill="currentColor" d="M93.8,73.4c0-0.5,0.1-0.8,0.2-1c0.2-0.2,0.4-0.4,0.7-0.4c0.6,0,0.8,0.4,0.8,1.3c0,0.4-0.1,0.8-0.2,1
			c-0.2,0.2-0.4,0.3-0.7,0.3c-0.3,0-0.5-0.1-0.6-0.3C93.9,74.2,93.8,73.9,93.8,73.4z M94.1,73.4c0,0.7,0.2,1,0.5,1
			c0.4,0,0.5-0.3,0.5-1c0-0.7-0.2-1.1-0.5-1.1C94.3,72.3,94.1,72.7,94.1,73.4z" />
		</g>
		<g>
			<path fill="currentColor" d="M26.6,38.3c-0.1-0.1-0.3-0.1-0.4-0.1c-0.2,0-0.4,0.1-0.6,0.3c-0.1,0.2-0.2,0.5-0.2,0.8h0c0.1-0.2,0.3-0.4,0.6-0.4
			c0.2,0,0.4,0.1,0.5,0.2c0.1,0.1,0.2,0.3,0.2,0.6c0,0.3-0.1,0.5-0.2,0.6c-0.2,0.2-0.4,0.2-0.6,0.2c-0.3,0-0.5-0.1-0.6-0.3
			c-0.2-0.2-0.2-0.5-0.2-0.9c0-0.5,0.1-0.8,0.3-1.1c0.2-0.3,0.5-0.4,0.8-0.4c0.2,0,0.3,0,0.4,0.1V38.3z M25.4,39.7
			c0,0.2,0,0.3,0.1,0.4c0.1,0.1,0.2,0.2,0.4,0.2c0.1,0,0.3-0.1,0.4-0.2c0.1-0.1,0.1-0.2,0.1-0.4c0-0.2,0-0.3-0.1-0.4
			c-0.1-0.1-0.2-0.1-0.4-0.1c-0.2,0-0.3,0.1-0.4,0.2C25.5,39.5,25.4,39.6,25.4,39.7z" />
			<path fill="currentColor" d="M27.1,39.3c0-0.5,0.1-0.8,0.2-1c0.2-0.2,0.4-0.4,0.7-0.4c0.6,0,0.8,0.4,0.8,1.3c0,0.4-0.1,0.8-0.2,1
			c-0.2,0.2-0.4,0.3-0.7,0.3c-0.3,0-0.5-0.1-0.6-0.3C27.2,40,27.1,39.7,27.1,39.3z M27.4,39.3c0,0.7,0.2,1,0.5,1
			c0.4,0,0.5-0.3,0.5-1c0-0.7-0.2-1.1-0.5-1.1C27.6,38.2,27.4,38.6,27.4,39.3z" />
		</g>
		<g>
			<path fill="currentColor" d="M16.4,55.2v1.7h0.4v0.3h-0.4v0.6h-0.3v-0.6h-1.2v-0.3c0.2-0.2,0.4-0.5,0.7-0.8c0.2-0.3,0.4-0.6,0.5-0.9H16.4z M15.3,56.9
			h0.9v-1.2c-0.1,0.2-0.2,0.4-0.4,0.6C15.6,56.5,15.4,56.7,15.3,56.9z" />
			<path fill="currentColor" d="M17.1,56.5c0-0.5,0.1-0.8,0.2-1c0.2-0.2,0.4-0.4,0.7-0.4c0.6,0,0.8,0.4,0.8,1.3c0,0.4-0.1,0.8-0.2,1s-0.4,0.3-0.7,0.3
			c-0.3,0-0.5-0.1-0.6-0.3C17.1,57.3,17.1,57,17.1,56.5z M17.4,56.5c0,0.7,0.2,1,0.5,1c0.4,0,0.5-0.3,0.5-1c0-0.7-0.2-1.1-0.5-1.1
			C17.6,55.4,17.4,55.8,17.4,56.5z" />
		</g>
		<g>
			<path fill="currentColor"
				d="M6.6,72.6c0-0.1,0-0.2-0.1-0.3c-0.1-0.1-0.2-0.1-0.4-0.1c-0.1,0-0.2,0-0.3,0.1c-0.1,0.1-0.2,0.1-0.3,0.2v-0.3
			C5.5,72.1,5.6,72,5.7,72c0.1,0,0.2-0.1,0.4-0.1c0.2,0,0.4,0.1,0.6,0.2c0.1,0.1,0.2,0.3,0.2,0.5c0,0.2,0,0.4-0.1,0.5
			c-0.1,0.1-0.2,0.3-0.5,0.4c-0.2,0.1-0.4,0.3-0.4,0.3C5.8,73.9,5.7,74,5.7,74c0,0.1,0,0.1,0,0.2H7v0.3H5.3v-0.1
			c0-0.1,0-0.3,0.1-0.4c0-0.1,0.1-0.2,0.2-0.3c0.1-0.1,0.2-0.2,0.4-0.4c0.2-0.1,0.3-0.3,0.4-0.4C6.5,72.9,6.6,72.7,6.6,72.6z" />
			<path fill="currentColor" d="M7.3,73.3c0-0.5,0.1-0.8,0.2-1c0.2-0.2,0.4-0.4,0.7-0.4c0.6,0,0.8,0.4,0.8,1.3c0,0.4-0.1,0.8-0.2,1
			c-0.2,0.2-0.4,0.3-0.7,0.3c-0.3,0-0.5-0.1-0.6-0.3C7.4,74,7.3,73.7,7.3,73.3z M7.7,73.3c0,0.7,0.2,1,0.5,1c0.4,0,0.5-0.3,0.5-1
			c0-0.7-0.2-1.1-0.5-1.1C7.8,72.2,7.7,72.5,7.7,73.3z" />
		</g>
		<g>
			<path fill="currentColor"
				d="M78.9,93.2c0-0.1,0-0.2-0.1-0.3c-0.1-0.1-0.2-0.1-0.4-0.1c-0.1,0-0.2,0-0.3,0.1c-0.1,0.1-0.2,0.1-0.3,0.2v-0.3
			c0.1-0.1,0.2-0.2,0.3-0.2c0.1,0,0.2-0.1,0.4-0.1c0.2,0,0.4,0.1,0.6,0.2c0.1,0.1,0.2,0.3,0.2,0.5c0,0.2,0,0.4-0.1,0.5
			c-0.1,0.1-0.2,0.3-0.5,0.4c-0.2,0.1-0.4,0.3-0.4,0.3c-0.1,0.1-0.1,0.1-0.2,0.2c0,0.1,0,0.1,0,0.2h1.3v0.3h-1.7V95
			c0-0.1,0-0.3,0.1-0.4c0-0.1,0.1-0.2,0.2-0.3c0.1-0.1,0.2-0.2,0.4-0.4c0.2-0.1,0.3-0.3,0.4-0.4C78.9,93.5,78.9,93.4,78.9,93.2z" />
			<path fill="currentColor" d="M79.6,93.9c0-0.5,0.1-0.8,0.2-1c0.2-0.2,0.4-0.4,0.7-0.4c0.6,0,0.8,0.4,0.8,1.3c0,0.4-0.1,0.8-0.2,1
			c-0.2,0.2-0.4,0.3-0.7,0.3c-0.3,0-0.5-0.1-0.6-0.3C79.7,94.6,79.6,94.3,79.6,93.9z M80,93.9c0,0.7,0.2,1,0.5,1
			c0.4,0,0.5-0.3,0.5-1c0-0.7-0.2-1.1-0.5-1.1C80.2,92.8,80,93.2,80,93.9z" />
		</g>
		<g>
			<path fill="currentColor" d="M59.7,92.6v1.7h0.4v0.3h-0.4v0.6h-0.3v-0.6h-1.2v-0.3c0.2-0.2,0.4-0.5,0.7-0.8c0.2-0.3,0.4-0.6,0.6-0.9H59.7z M58.5,94.3
			h0.9V93c-0.1,0.2-0.2,0.4-0.4,0.6C58.9,93.8,58.7,94,58.5,94.3z" />
			<path fill="currentColor" d="M60.3,93.9c0-0.5,0.1-0.8,0.2-1c0.2-0.2,0.4-0.4,0.7-0.4c0.6,0,0.8,0.4,0.8,1.3c0,0.4-0.1,0.8-0.2,1
			c-0.2,0.2-0.4,0.3-0.7,0.3c-0.3,0-0.5-0.1-0.6-0.3C60.4,94.6,60.3,94.3,60.3,93.9z M60.7,93.9c0,0.7,0.2,1,0.5,1
			c0.4,0,0.5-0.3,0.5-1c0-0.7-0.2-1.1-0.5-1.1C60.8,92.8,60.7,93.2,60.7,93.9z" />
		</g>
		<g>
			<path fill="currentColor" d="M40.3,92.9c-0.1-0.1-0.3-0.1-0.4-0.1c-0.2,0-0.4,0.1-0.6,0.3c-0.1,0.2-0.2,0.5-0.2,0.8h0c0.1-0.2,0.3-0.4,0.6-0.4
			c0.2,0,0.4,0.1,0.5,0.2c0.1,0.1,0.2,0.3,0.2,0.6c0,0.3-0.1,0.5-0.2,0.6c-0.2,0.2-0.4,0.2-0.6,0.2c-0.3,0-0.5-0.1-0.6-0.3
			c-0.2-0.2-0.2-0.5-0.2-0.9c0-0.5,0.1-0.8,0.3-1.1c0.2-0.3,0.5-0.4,0.8-0.4c0.2,0,0.3,0,0.4,0.1V92.9z M39.1,94.3
			c0,0.2,0,0.3,0.1,0.4c0.1,0.1,0.2,0.2,0.4,0.2c0.1,0,0.3-0.1,0.4-0.2c0.1-0.1,0.1-0.2,0.1-0.4c0-0.2,0-0.3-0.1-0.4
			c-0.1-0.1-0.2-0.1-0.4-0.1c-0.2,0-0.3,0.1-0.4,0.2C39.2,94,39.1,94.2,39.1,94.3z" />
			<path fill="currentColor" d="M40.8,93.9c0-0.5,0.1-0.8,0.2-1c0.2-0.2,0.4-0.4,0.7-0.4c0.6,0,0.8,0.4,0.8,1.3c0,0.4-0.1,0.8-0.2,1
			c-0.2,0.2-0.4,0.3-0.7,0.3c-0.3,0-0.5-0.1-0.6-0.3C40.8,94.6,40.8,94.3,40.8,93.9z M41.1,93.9c0,0.7,0.2,1,0.5,1
			c0.4,0,0.5-0.3,0.5-1c0-0.7-0.2-1.1-0.5-1.1C41.3,92.8,41.1,93.2,41.1,93.9z" />
		</g>
		<g>
			<path fill="currentColor" d="M19.2,94.4c0-0.1,0-0.3,0.1-0.4c0.1-0.1,0.2-0.2,0.4-0.3c-0.1-0.1-0.2-0.1-0.3-0.2c-0.1-0.1-0.1-0.2-0.1-0.3
			c0-0.1,0-0.2,0.1-0.3c0.1-0.1,0.2-0.2,0.3-0.2c0.1-0.1,0.2-0.1,0.4-0.1c0.1,0,0.3,0,0.4,0.1c0.1,0.1,0.2,0.1,0.3,0.2
			c0.1,0.1,0.1,0.2,0.1,0.3c0,0.1,0,0.2-0.1,0.3c-0.1,0.1-0.2,0.2-0.3,0.2c0.1,0.1,0.3,0.1,0.4,0.3c0.1,0.1,0.1,0.3,0.1,0.4
			c0,0.1,0,0.3-0.1,0.4c-0.1,0.1-0.2,0.2-0.3,0.3c-0.1,0.1-0.3,0.1-0.4,0.1c-0.2,0-0.3,0-0.4-0.1c-0.1-0.1-0.2-0.2-0.3-0.3
			C19.2,94.7,19.2,94.6,19.2,94.4z M19.5,94.4c0,0.2,0,0.3,0.1,0.4c0.1,0.1,0.2,0.1,0.4,0.1c0.2,0,0.3,0,0.4-0.1
			c0.1-0.1,0.1-0.2,0.1-0.4c0-0.1-0.1-0.3-0.2-0.4c-0.1-0.1-0.2-0.1-0.4-0.1c-0.2,0-0.3,0-0.4,0.1C19.6,94.1,19.5,94.3,19.5,94.4z
			 M19.6,93.2c0,0.1,0,0.2,0.1,0.3c0.1,0.1,0.2,0.1,0.3,0.1c0.1,0,0.2,0,0.3-0.1c0.1-0.1,0.1-0.2,0.1-0.3c0-0.1,0-0.2-0.1-0.3
			c-0.1-0.1-0.2-0.1-0.3-0.1c-0.1,0-0.2,0-0.3,0.1C19.7,93,19.6,93.1,19.6,93.2z" />
			<path fill="currentColor" d="M21.2,93.9c0-0.5,0.1-0.8,0.2-1c0.2-0.2,0.4-0.4,0.7-0.4c0.6,0,0.8,0.4,0.8,1.3c0,0.4-0.1,0.8-0.2,1
			c-0.2,0.2-0.4,0.3-0.7,0.3c-0.3,0-0.5-0.1-0.6-0.3C21.3,94.6,21.2,94.3,21.2,93.9z M21.6,93.9c0,0.7,0.2,1,0.5,1
			c0.4,0,0.5-0.3,0.5-1c0-0.7-0.2-1.1-0.5-1.1C21.8,92.8,21.6,93.2,21.6,93.9z" />
		</g>
		<g>
			<rect fill="currentColor" x="49.9" y="3.7" width="0.3" height="3" />
		</g>
		<g>
			<polygon fill="currentColor" points="21.4,31.6 19.2,33.6 20.2,34.3" />
		</g>
		<g>
			<polygon fill="currentColor" points="14.2,42.3 13.9,42.1 19.6,33.9 19.8,34" />
		</g>
		<g>
			<polygon fill="currentColor" points="93.6,58.7 92.4,56 91.5,56.6" />
		</g>
		<g>
			<polygon fill="currentColor" points="91.8,56.3 86.4,48 86.6,47.8 92.1,56.2" />
		</g>
		<g>
			<polygon fill="currentColor" points="36.7,98.5 39.6,99.1 39.6,98" />
		</g>
		<g>
			<rect fill="currentColor" x="39.6" y="98.4" width="9.6" height="0.3" />
		</g>
		<g>
			<polygon fill="currentColor" points="61.5,29.3 61.5,29.1 73.9,26.4 73.9,26.6" />
		</g>
		<g>
			<polygon fill="currentColor" points="52,13.7 51.9,13.4 59.5,10.1 59.6,10.3" />
		</g>
	</g>
</svg>